<?xml version="1.0" encoding="iso-8859-1"?>
<!-- Generator: Adobe Illustrator 24.0.2, SVG Export Plug-In . SVG Version: 6.00 Build 0)  -->
<svg version="1.1" id="&#x5167;&#x5BB9;" xmlns="http://www.w3.org/2000/svg" xmlns:xlink="http://www.w3.org/1999/xlink" x="0px"
	 y="0px" viewBox="0 0 119.897 83.182" style="enable-background:new 0 0 119.897 83.182;" xml:space="preserve">
<g>
	<g>
		<path style="fill:#EA5514;" d="M26.187,70.721l-10.118,2.963l-2.076-7.088l10.118-2.963L26.187,70.721z M14.005,75.173
			l6.786-1.987l2.319,7.92l-2.073,0.607l-0.135-0.46l-2.746,0.804l0.161,0.549l-1.966,0.576L14.005,75.173z M16.495,76.387
			l0.317,1.081l2.747-0.804l-0.316-1.08L16.495,76.387z M22.476,65.997l-5.936,1.738l0.291,0.993l5.936-1.738L22.476,65.997z
			 M20.378,79.462l-0.353-1.204l-2.746,0.804l0.352,1.204L20.378,79.462z M23.238,68.602l-5.935,1.738l0.296,1.01l5.935-1.738
			L23.238,68.602z M28.871,70.819l2.319,7.92l-2.108,0.617l-0.135-0.46l-2.853,0.835l0.161,0.549l-2.02,0.592l-2.346-8.009
			L28.871,70.819z M24.434,74.062l0.316,1.081l2.853-0.835l-0.317-1.081L24.434,74.062z M28.423,77.106l-0.353-1.204l-2.853,0.835
			l0.353,1.204L28.423,77.106z"/>
		<path style="fill:#EA5514;" d="M47.715,71.668c0.319-0.093,0.325-0.402-0.19-2.291c0.501,0.2,1.486,0.276,2.059,0.263
			c0.569,2.602,0.275,3.439-1.089,3.838l-1.399,0.41c-1.701,0.498-2.255-0.013-2.79-1.838l-1.027-3.508l-0.833,0.244
			c0.495,2.741,0.47,5.153-2.024,7.345c-0.398-0.441-1.206-1.032-1.759-1.274c2.061-1.701,2.05-3.448,1.691-5.459l-1.24,0.363
			l-1.339-4.572l-0.068,0.097c-0.338-0.171-0.941-0.456-1.483-0.663c0.282,0.437,0.517,0.849,0.675,1.187l-1.072,0.873
			c-0.275-0.612-0.771-1.448-1.296-2.257l3.622,12.368l-2.02,0.592l-3.679-12.563c0.33,1.52,0.617,3.552,0.583,4.946l-1.743-0.105
			c0.06-1.306-0.197-3.367-0.503-4.873l1.581-0.251l-1.08-3.686l2.02-0.592l0.877,2.995l0.731-0.522
			c0.336,0.422,0.686,0.896,1.001,1.381c0.975-1.401,1.711-3.29,1.986-5.044l2.12,0.014c-0.262,1.538-0.771,3.149-1.423,4.533
			l5.953-1.744c-1.083-0.875-2.548-1.87-3.778-2.587l1.163-1.417c1.718,0.94,3.893,2.323,5.006,3.363l-1.275,1.624
			c-0.107-0.103-0.215-0.207-0.321-0.31l1.453,4.962l-1.417,0.415l1.022,3.49c0.156,0.532,0.207,0.574,0.508,0.486L47.715,71.668z
			 M40.59,67.311l3.561-1.043l-0.612-2.091l-3.561,1.043L40.59,67.311z"/>
		<path style="fill:#EA5514;" d="M79.151,48.995l0.607,2.073l-15.61,4.572l-0.607-2.073l6.857-2.008
			c-0.398-0.441-0.838-0.89-1.203-1.283l1.881-1.263c0.582,0.542,1.327,1.247,1.838,1.809L79.151,48.995z M75.033,59.436l1.136,3.88
			c0.312,1.063,0.278,1.67-0.449,2.209c-0.673,0.525-1.732,0.854-3.149,1.27c-0.271-0.595-0.821-1.357-1.271-1.842
			c0.914-0.229,2.025-0.573,2.309-0.656c0.301-0.088,0.375-0.167,0.307-0.397l-1.116-3.81l-4.749,1.391l-1.624-5.546l11.712-3.43
			l1.624,5.546L75.033,59.436z M71.276,62.306c-0.559,1.704-1.462,3.68-2.348,5.055c-0.509-0.294-1.39-0.67-1.931-0.878
			c0.834-1.225,1.671-3.029,1.982-4.332L71.276,62.306z M69.631,59.055l7.371-2.159l-0.56-1.913l-7.371,2.159L69.631,59.055z
			 M78.763,59.229c1.354,0.815,3.195,1.912,4.164,2.724l-1.497,1.786c-0.898-0.834-2.699-2.057-4.104-2.914L78.763,59.229z"/>
		<path style="fill:#EA5514;" d="M97.318,42.867l1.131,3.862l-2.108,0.617l-0.612-2.091l-11.003,3.223l0.612,2.091l-2.003,0.586
			l-1.131-3.862l6.379-1.868c-0.246-0.313-0.514-0.638-0.727-0.903l2.156-1.112c0.365,0.393,0.809,0.859,1.122,1.268L97.318,42.867z
			 M95.275,46.14l0.415,1.417l-9.692,2.838l-0.414-1.417L95.275,46.14z M85.689,55.777l13.289-3.892l1.92,6.556l-2.091,0.612
			l-0.135-0.461l-9.196,2.693l0.146,0.497l-2.002,0.586L85.689,55.777z M85.737,51.146l10.543-3.088l1.053,3.597L86.79,54.742
			L85.737,51.146z M88.327,52.83l6.556-1.92l-0.254-0.868l-6.556,1.92L88.327,52.83z M88.137,56.713l0.254,0.869l3.509-1.027
			l-0.255-0.869L88.137,56.713z M92.538,58.734l-0.254-0.868l-3.509,1.027l0.254,0.868L92.538,58.734z M97.333,54.021l-3.632,1.063
			l0.254,0.869l3.633-1.063L97.333,54.021z M98.226,57.068l-0.254-0.868l-3.632,1.064l0.254,0.867L98.226,57.068z"/>
		<path style="fill:#EA5514;" d="M108.448,50.747c-0.373-0.352-0.929-0.806-1.497-1.235l1.931,6.591l-2.091,0.613l-1.832-6.255
			c-0.346,0.659-0.712,1.248-1.111,1.788c-0.312-0.602-1.097-1.642-1.477-1.954c1.21-1.451,2.19-3.623,2.554-5.73l-3.525,1.032
			l-0.556-1.896l2.516-0.737c-0.511-0.563-1.276-1.205-1.954-1.678l1.406-1.375c0.817,0.492,1.748,1.239,2.223,1.812l-0.985,1.039
			l1.365-0.4l0.364-0.203l1.327,0.458c-0.077,1.446-0.318,2.921-0.732,4.332c0.906,0.465,2.467,1.394,2.89,1.655L108.448,50.747z
			 M119.897,48.587l-3.898,1.142l1.162,3.969l-2.179,0.638l-1.163-3.969l-4.164,1.219l-0.56-1.914l4.163-1.219l-0.508-1.737
			l-3.313,0.97l-0.545-1.86l3.313-0.97l-0.488-1.665l-3.721,1.089l-0.55-1.878l2.215-0.649c-0.457-0.771-1.303-1.754-2.078-2.432
			l1.557-1.187c0.862,0.709,1.8,1.743,2.251,2.496l-1.163,0.956l2.729-0.799c0.271-1.176,0.448-2.805,0.433-3.975l2.326,0.126
			c-0.244,1.073-0.475,2.255-0.722,3.251l1.878-0.55l0.55,1.878l-3.526,1.033l0.488,1.665l3.083-0.903l0.545,1.86l-3.083,0.903
			l0.508,1.737l3.898-1.142L119.897,48.587z"/>
	</g>
	<path style="fill:#EA5514;" d="M26.932,40.964l1.227-0.359l-2.422-8.271l-4.346,1.272l-0.381-1.305l4.423-1.295l-1.338-4.566
		L21.1,24.255l-4.306,1.261l0.605,2.065l1.212,0.86l0.18,0.615l-3.048,0.892l-0.181-0.618l0.583-1.386l-0.604-2.063l-4.333,1.269
		l-1.343,3.455l1.337,4.567L15.209,34l0.382,1.305l-4.034,1.181l2.422,8.271l4.06-1.189l0.419,1.435l-4.033,1.181l1.44,4.916
		l14.309-4.19l-1.323-4.518L26.932,40.964z M16.928,40.365l-0.473-1.617l1.799-0.526l0.473,1.617L16.928,40.365z M20.827,37.468
		l1.721-0.503l0.474,1.617l-1.721,0.503L20.827,37.468z M23.466,43.876l-0.511-1.747l1.539-0.452l0.511,1.747L23.466,43.876z"/>
	<polygon style="fill:#EA5514;" points="7.774,41.521 7.354,40.086 10.894,39.05 7.777,28.411 0,30.688 1.523,35.889 4.751,34.943 
		5.185,36.431 2.011,37.36 4.837,47.01 7.83,46.134 8.257,47.595 5.212,48.486 6.766,53.792 12.912,51.991 13.883,49.163 
		11.339,40.477 	"/>
	<path style="fill:#EA5514;" d="M54.256,32.962l1.228-0.359l-2.423-8.271l-4.346,1.272l-0.381-1.305l4.424-1.295l-1.338-4.567
		l-2.995-2.184l-4.307,1.261l0.605,2.065l1.212,0.86l0.18,0.615l-3.048,0.894l-0.181-0.619l0.583-1.386l-0.604-2.063l-4.333,1.269
		l-1.344,3.455l1.337,4.567l4.008-1.174l0.381,1.306l-4.033,1.181l2.422,8.271l4.06-1.189L45.786,37l-4.034,1.182l1.439,4.915
		l14.309-4.19l-1.323-4.518L54.256,32.962z M44.254,32.363l-0.474-1.616l1.799-0.527l0.474,1.616L44.254,32.363z M48.152,29.466
		l1.721-0.503l0.473,1.617l-1.721,0.504L48.152,29.466z M50.791,35.873l-0.512-1.747l1.54-0.45l0.511,1.747L50.791,35.873z"/>
	<polygon style="fill:#EA5514;" points="35.099,33.519 34.679,32.084 38.218,31.048 35.102,20.408 27.325,22.686 28.848,27.887 
		32.074,26.942 32.51,28.428 29.335,29.358 32.161,39.008 35.154,38.132 35.582,39.592 32.537,40.484 34.091,45.789 40.236,43.989 
		41.208,41.161 38.664,32.475 	"/>
	<polygon style="fill:#EA5514;" points="70.834,23.449 71.947,27.248 70.721,27.608 69.639,23.912 67.769,24.46 69.939,31.873 
		71.55,31.401 70.527,34.169 70.799,35.096 75.93,33.593 76.585,30.652 74.188,22.467 	"/>
	<polygon style="fill:#EA5514;" points="74.943,14.896 75.136,15.564 74.054,17.462 75.04,20.83 81.386,18.971 80.48,15.877 
		79.024,16.304 78.827,15.637 79.88,13.83 79.162,11.377 77.549,11.849 77.337,11.129 78.501,9.121 78.08,7.681 73.791,8.937 
		72.313,11.421 73.458,15.332 	"/>
	<polygon style="fill:#EA5514;" points="67.238,17.153 67.435,17.82 66.326,19.728 67.312,23.093 73.813,21.188 72.908,18.095 
		71.529,18.499 71.334,17.837 72.31,16.053 71.59,13.594 70.028,14.051 69.818,13.334 70.93,11.342 70.507,9.898 66.014,11.214 
		64.609,13.673 65.755,17.587 	"/>
	<polygon style="fill:#EA5514;" points="82.233,20.224 80.103,20.848 81.185,24.542 79.957,24.902 78.846,21.103 75.44,22.1 
		78.579,32.818 83.65,31.333 82.713,28.132 84.404,27.637 	"/>
	<path style="fill:#EA5514;" d="M54.949,14.455l1.843,6.294l0.677-0.198l2.912,9.944l-0.677,0.198l1.538,5.253l3.331-0.976
		l0.526,1.796l4.551-1.333l-6.819-23.286L54.949,14.455z M60.258,20.726l-0.459-1.565l1.617-0.473l0.459,1.565L60.258,20.726z
		 M64.725,29.985l-1.618,0.473l-0.488-1.668l1.616-0.474L64.725,29.985z M61.66,25.514l-0.467-1.591l1.618-0.473l0.465,1.591
		L61.66,25.514z"/>
	<polygon style="fill:#EA5514;" points="109.569,12.84 102.283,14.974 101.764,13.201 108.972,11.089 107.624,6.487 100.416,8.598 
		99.904,6.852 104.068,5.632 106.164,3.046 105.272,0 83.209,6.461 84.633,11.324 91.19,9.404 91.702,11.15 84.676,13.208 
		86.024,17.81 93.05,15.752 93.569,17.526 86.466,19.606 87.928,24.598 95.032,22.518 95.377,23.701 93.259,26.016 93.925,28.292 
		105.186,24.887 103.745,19.966 111.031,17.833 	"/>
	<g>
		<g>
			
				<rect x="56.397" y="56.175" transform="matrix(0.4876 -0.8731 0.8731 0.4876 -25.3429 81.6593)" style="fill:#EA5514;" width="1" height="12.49"/>
		</g>
		<g>
			
				<rect x="50.652" y="61.92" transform="matrix(0.4874 -0.8732 0.8732 0.4874 -25.338 81.6814)" style="fill:#EA5514;" width="12.489" height="1"/>
		</g>
	</g>
</g>
</svg>
